999
Inkscape export via OpenSCAD DXF Export
  0
SECTION
  2
HEADER
  9
$ACADVER
  1
AC1014
  9
$HANDSEED
  5
FFFF
  9
$MEASUREMENT
 70
     1
  0
ENDSEC
  0
SECTION
  2
TABLES
  0
TABLE
  2
VPORT
  5
8
330
0
100
AcDbSymbolTable
 70
     4
  0
VPORT
  5
2E
330
8
100
AcDbSymbolTableRecord
100
AcDbViewportTableRecord
  2
*ACTIVE
 70
     0
 10
0.0
 20
0.0
 11
1.0
 21
1.0
 12
210.0
 22
148.5
 13
0.0
 23
0.0
 14
10.0
 24
10.0
 15
10.0
 25
10.0
 16
0.0
 26
0.0
 36
1.0
 17
0.0
 27
0.0
 37
0.0
 40
341.0
 41
1.24
 42
50.0
 43
0.0
 44
0.0
 50
0.0
 51
0.0
 71
     0
 72
   100
 73
     1
 74
     3
 75
     0
 76
     0
 77
     0
 78
     0
  0
ENDTAB
  0
TABLE
  2
LTYPE
  5
5
330
0
100
AcDbSymbolTable
 70
     1
  0
LTYPE
  5
14
330
5
100
AcDbSymbolTableRecord
100
AcDbLinetypeTableRecord
  2
BYBLOCK
 70
     0
  3

 72
    65
 73
     0
 40
0.0
  0
LTYPE
  5
15
330
5
100
AcDbSymbolTableRecord
100
AcDbLinetypeTableRecord
  2
BYLAYER
 70
     0
  3

 72
    65
 73
     0
 40
0.0
  0
LTYPE
  5
16
330
5
100
AcDbSymbolTableRecord
100
AcDbLinetypeTableRecord
  2
CONTINUOUS
 70
     0
  3
Solid line
 72
    65
 73
     0
 40
0.0
  0
ENDTAB
  0
TABLE
0
TABLE
2
LAYER
5
2
330
0
100
AcDbSymbolTable
70
1
0
LAYER
5
10
330
2
100
AcDbSymbolTableRecord
100
AcDbLayerTableRecord
2
Layer_1
70
0
62
7
6
CONTINUOUS
0
ENDTAB
0
ENDSEC
  0
ENDTAB
  0
TABLE
  2
STYLE
  5
3
330
0
100
AcDbSymbolTable
 70
     1
  0
STYLE
  5
11
330
3
100
AcDbSymbolTableRecord
100
AcDbTextStyleTableRecord
  2
STANDARD
 70
     0
 40
0.0
 41
1.0
 50
0.0
 71
     0
 42
2.5
  3
txt
  4

  0
ENDTAB
  0
TABLE
  2
VIEW
  5
6
330
0
100
AcDbSymbolTable
 70
     0
  0
ENDTAB
  0
TABLE
  2
UCS
  5
7
330
0
100
AcDbSymbolTable
 70
     0
  0
ENDTAB
  0
TABLE
  2
APPID
  5
9
330
0
100
AcDbSymbolTable
 70
     2
  0
APPID
  5
12
330
9
100
AcDbSymbolTableRecord
100
AcDbRegAppTableRecord
  2
ACAD
 70
     0
  0
ENDTAB
  0
TABLE
  2
DIMSTYLE
  5
A
330
0
100
AcDbSymbolTable
 70
     1
  0
DIMSTYLE
105
27
330
A
100
AcDbSymbolTableRecord
100
AcDbDimStyleTableRecord
  2
ISO-25
 70
     0
  3

  4

  5

  6

  7

 40
1.0
 41
2.5
 42
0.625
 43
3.75
 44
1.25
 45
0.0
 46
0.0
 47
0.0
 48
0.0
140
2.5
141
2.5
142
0.0
143
0.03937007874016
144
1.0
145
0.0
146
1.0
147
0.625
 71
     0
 72
     0
 73
     0
 74
     0
 75
     0
 76
     0
 77
     1
 78
     8
170
     0
171
     3
172
     1
173
     0
174
     0
175
     0
176
     0
177
     0
178
     0
270
     2
271
     2
272
     2
273
     2
274
     3
340
11
275
     0
280
     0
281
     0
282
     0
283
     0
284
     8
285
     0
286
     0
287
     3
288
     0
  0
ENDTAB
  0
TABLE
  2
BLOCK_RECORD
  5
1
330
0
100
AcDbSymbolTable
 70
     1
  0
BLOCK_RECORD
  5
1F
330
1
100
AcDbSymbolTableRecord
100
AcDbBlockTableRecord
  2
*MODEL_SPACE
  0
BLOCK_RECORD
  5
1B
330
1
100
AcDbSymbolTableRecord
100
AcDbBlockTableRecord
  2
*PAPER_SPACE
  0
ENDTAB
  0
ENDSEC
  0
SECTION
  2
BLOCKS
  0
BLOCK
  5
20
330
1F
100
AcDbEntity
  8
0
100
AcDbBlockBegin
  2
*MODEL_SPACE
 70
     0
 10
0.0
 20
0.0
 30
0.0
  3
*MODEL_SPACE
  1

  0
ENDBLK
  5
21
330
1F
100
AcDbEntity
  8
0
100
AcDbBlockEnd
  0
BLOCK
  5
1C
330
1B
100
AcDbEntity
 67
     1
  8
0
100
AcDbBlockBegin
  2
*PAPER_SPACE
  1

  0
ENDBLK
  5
1D
330
1B
100
AcDbEntity
 67
     1
  8
0
100
AcDbBlockEnd
  0
ENDSEC
  0
SECTION
  2
ENTITIES
0
DIMENSION
5
83
100
AcDbEntity
62
256
370
-1
6
ByLayer
1
total_width
3
Standard
70
0
71
5
72
1
41
1.0
100
AcDbAlignedDimension
13
0.035844
23
0.000000
33
0.0
14
9.145587
24
0.000000
34
0.0
50
0.000000
100
AcDbRotatedDimension
0
DIMENSION
5
83
100
AcDbEntity
62
256
370
-1
6
ByLayer
1
total_minx
3
Standard
70
0
71
5
72
1
41
1.0
100
AcDbAlignedDimension
13
0.035844
23
0.000000
33
0.0
14
0.000000
24
0.000000
34
0.0
50
0.000000
100
AcDbRotatedDimension
0
DIMENSION
5
83
100
AcDbEntity
62
256
370
-1
6
ByLayer
1
total_maxx
3
Standard
70
0
71
5
72
1
41
1.0
100
AcDbAlignedDimension
13
0.000000
23
0.000000
33
0.0
14
9.145587
24
0.000000
34
0.0
50
0.000000
100
AcDbRotatedDimension
0
DIMENSION
5
83
100
AcDbEntity
62
256
370
-1
6
ByLayer
1
total_height
3
Standard
70
0
71
5
72
1
41
1.0
100
AcDbAlignedDimension
13
0.000000
23
0.036570
33
0.0
14
0.000000
24
9.212272
34
0.0
50
90.000000
100
AcDbRotatedDimension
0
DIMENSION
5
83
100
AcDbEntity
62
256
370
-1
6
ByLayer
1
total_miny
3
Standard
70
0
71
5
72
1
41
1.0
100
AcDbAlignedDimension
13
0.036570
23
0.000000
33
0.0
14
0.000000
24
0.000000
34
0.0
50
0.000000
100
AcDbRotatedDimension
0
DIMENSION
5
83
100
AcDbEntity
62
256
370
-1
6
ByLayer
1
total_maxy
3
Standard
70
0
71
5
72
1
41
1.0
100
AcDbAlignedDimension
13
0.000000
23
0.000000
33
0.0
14
9.212272
24
0.000000
34
0.0
50
0.000000
100
AcDbRotatedDimension
0
DIMENSION
8
Layer_1
5
83
100
AcDbEntity
62
256
370
-1
6
ByLayer
1
Layer_1_width
3
Standard
70
0
71
5
72
1
41
1.0
100
AcDbAlignedDimension
13
0.035844
23
0.000000
33
0.0
14
9.145587
24
0.000000
34
0.0
50
0.000000
100
AcDbRotatedDimension
0
DIMENSION
8
Layer_1
5
83
100
AcDbEntity
62
256
370
-1
6
ByLayer
1
Layer_1_minx
3
Standard
70
0
71
5
72
1
41
1.0
100
AcDbAlignedDimension
13
0.035844
23
0.000000
33
0.0
14
0.000000
24
0.000000
34
0.0
50
0.000000
100
AcDbRotatedDimension
0
DIMENSION
8
Layer_1
5
83
100
AcDbEntity
62
256
370
-1
6
ByLayer
1
Layer_1_maxx
3
Standard
70
0
71
5
72
1
41
1.0
100
AcDbAlignedDimension
13
0.000000
23
0.000000
33
0.0
14
9.145587
24
0.000000
34
0.0
50
0.000000
100
AcDbRotatedDimension
0
DIMENSION
8
Layer_1
5
83
100
AcDbEntity
62
256
370
-1
6
ByLayer
1
Layer_1_height
3
Standard
70
0
71
5
72
1
41
1.0
100
AcDbAlignedDimension
13
0.000000
23
0.036570
33
0.0
14
0.000000
24
9.212272
34
0.0
50
90.000000
100
AcDbRotatedDimension
0
DIMENSION
8
Layer_1
5
83
100
AcDbEntity
62
256
370
-1
6
ByLayer
1
Layer_1_miny
3
Standard
70
0
71
5
72
1
41
1.0
100
AcDbAlignedDimension
13
0.036570
23
0.000000
33
0.0
14
0.000000
24
0.000000
34
0.0
50
0.000000
100
AcDbRotatedDimension
0
DIMENSION
8
Layer_1
5
83
100
AcDbEntity
62
256
370
-1
6
ByLayer
1
Layer_1_maxy
3
Standard
70
0
71
5
72
1
41
1.0
100
AcDbAlignedDimension
13
0.000000
23
0.000000
33
0.0
14
9.212272
24
0.000000
34
0.0
50
0.000000
100
AcDbRotatedDimension
62
255
0
LWPOLYLINE
100
AcDbPolyline
8
Layer_1
90
122
70
0
10
3.864615
20
9.212272
30
0.0
10
3.732540
20
8.618169
30
0.0
10
3.732540
20
8.486095
30
0.0
10
3.798500
20
8.090024
30
0.0
10
3.138436
20
7.891992
30
0.0
10
3.006362
20
8.221946
30
0.0
10
2.874287
20
8.354020
30
0.0
10
2.412259
20
8.750244
30
0.0
10
2.082149
20
8.486095
30
0.0
10
2.148264
20
7.957950
30
0.0
10
2.214224
20
7.825875
30
0.0
10
2.478218
20
7.495766
30
0.0
10
1.950230
20
7.033737
30
0.0
10
1.686080
20
7.297886
30
0.0
10
1.554161
20
7.364002
30
0.0
10
0.960057
20
7.495766
30
0.0
10
0.695908
20
7.165811
30
0.0
10
1.026017
20
6.703782
30
0.0
10
1.158092
20
6.571708
30
0.0
10
1.488045
20
6.373676
30
0.0
10
1.224052
20
5.779570
30
0.0
10
0.827982
20
5.911647
30
0.0
10
0.695908
20
5.911647
30
0.0
10
0.101804
20
5.845531
30
0.0
10
0.035844
20
5.383657
30
0.0
10
0.497873
20
5.053392
30
0.0
10
0.629948
20
5.053392
30
0.0
10
1.026017
20
4.987279
30
0.0
10
1.026017
20
4.327215
30
0.0
10
0.629948
20
4.261254
30
0.0
10
0.497873
20
4.195140
30
0.0
10
0.035844
20
3.931299
30
0.0
10
0.101804
20
3.469273
30
0.0
10
0.695908
20
3.403157
30
0.0
10
0.827982
20
3.403157
30
0.0
10
1.224052
20
3.535076
30
0.0
10
1.488045
20
2.940973
30
0.0
10
1.158092
20
2.743093
30
0.0
10
1.026017
20
2.611018
30
0.0
10
0.695908
20
2.148990
30
0.0
10
0.960057
20
1.752767
30
0.0
10
1.554161
20
1.950954
30
0.0
10
1.686080
20
2.016915
30
0.0
10
1.950230
20
2.280909
30
0.0
10
2.478218
20
1.818880
30
0.0
10
2.214224
20
1.488928
30
0.0
10
2.148264
20
1.356851
30
0.0
10
2.082149
20
0.762748
30
0.0
10
2.412259
20
0.564715
30
0.0
10
2.874287
20
0.960628
30
0.0
10
3.006362
20
1.092702
30
0.0
10
3.138436
20
1.422812
30
0.0
10
3.798500
20
1.224777
30
0.0
10
3.732540
20
0.828864
30
0.0
10
3.732540
20
0.696790
30
0.0
10
3.864615
20
0.102687
30
0.0
10
4.260684
20
0.036570
30
0.0
10
4.524678
20
0.564715
30
0.0
10
4.590638
20
0.762748
30
0.0
10
4.590638
20
1.158663
30
0.0
10
5.250857
20
1.224777
30
0.0
10
5.316816
20
0.828864
30
0.0
10
5.382776
20
0.696790
30
0.0
10
5.778845
20
0.234761
30
0.0
10
6.174914
20
0.366525
30
0.0
10
6.174914
20
0.960628
30
0.0
10
6.174914
20
1.092702
30
0.0
10
5.976879
20
1.422812
30
0.0
10
6.570983
20
1.818880
30
0.0
10
6.835132
20
1.488928
30
0.0
10
6.901092
20
1.356851
30
0.0
10
7.429236
20
1.092702
30
0.0
10
7.759190
20
1.356851
30
0.0
10
7.561156
20
1.950954
30
0.0
10
7.495195
20
2.083031
30
0.0
10
7.165086
20
2.280909
30
0.0
10
7.561156
20
2.874857
30
0.0
10
7.957224
20
2.677135
30
0.0
10
8.089299
20
2.611018
30
0.0
10
8.683247
20
2.611018
30
0.0
10
8.815322
20
3.006934
30
0.0
10
8.419409
20
3.403157
30
0.0
10
8.287334
20
3.469273
30
0.0
10
7.891265
20
3.601037
30
0.0
10
8.023339
20
4.261254
30
0.0
10
8.419409
20
4.195140
30
0.0
10
8.551328
20
4.195140
30
0.0
10
9.145587
20
4.459289
30
0.0
10
9.145587
20
4.855202
30
0.0
10
8.551328
20
5.053392
30
0.0
10
8.419409
20
5.053392
30
0.0
10
8.023339
20
5.053392
30
0.0
10
7.891265
20
5.713456
30
0.0
10
8.287334
20
5.845531
30
0.0
10
8.419409
20
5.911647
30
0.0
10
8.815322
20
6.307559
30
0.0
10
8.683247
20
6.703782
30
0.0
10
8.089299
20
6.703782
30
0.0
10
7.957224
20
6.637824
30
0.0
10
7.561156
20
6.439634
30
0.0
10
7.165086
20
6.967779
30
0.0
10
7.495195
20
7.231928
30
0.0
10
7.561156
20
7.364002
30
0.0
10
7.759190
20
7.891992
30
0.0
10
7.429236
20
8.221946
30
0.0
10
6.901092
20
7.957950
30
0.0
10
6.835132
20
7.825875
30
0.0
10
6.570983
20
7.495766
30
0.0
10
5.976879
20
7.825875
30
0.0
10
6.174914
20
8.221946
30
0.0
10
6.174914
20
8.354020
30
0.0
10
6.174914
20
8.948124
30
0.0
10
5.778845
20
9.080198
30
0.0
10
5.382776
20
8.618169
30
0.0
10
5.316816
20
8.486095
30
0.0
10
5.250857
20
8.090024
30
0.0
10
4.590638
20
8.155830
30
0.0
10
4.590638
20
8.552053
30
0.0
10
4.524678
20
8.684127
30
0.0
10
4.260684
20
9.212272
30
0.0
10
3.864615
20
9.212272
30
0.0
10
3.864615
20
9.212272
30
0.0
62
255
0
LWPOLYLINE
100
AcDbPolyline
8
Layer_1
90
9
70
0
10
4.147744
20
5.136930
30
0.0
10
5.033688
20
5.136930
30
0.0
10
5.267968
20
4.624499
30
0.0
10
5.069564
20
4.145573
30
0.0
10
4.590638
20
3.947168
30
0.0
10
4.111722
20
4.145573
30
0.0
10
3.913307
20
4.624499
30
0.0
10
4.147744
20
5.136930
30
0.0
10
4.147744
20
5.136930
30
0.0
  0
ENDSEC
  0
SECTION
  2
OBJECTS
  0
DICTIONARY
  5
C
330
0
100
AcDbDictionary
  3
ACAD_GROUP
350
D
  3
ACAD_MLINESTYLE
350
17
  0
DICTIONARY
  5
D
330
C
100
AcDbDictionary
  0
DICTIONARY
  5
1A
330
C
100
AcDbDictionary
  0
DICTIONARY
  5
17
330
C
100
AcDbDictionary
  3
STANDARD
350
18
  0
DICTIONARY
  5
19
330
C
100
AcDbDictionary
  0
ENDSEC
  0
EOF
