  0
SECTION
  2
HEADER
  9
$ACADVER
  1
AC1014
  9
$HANDSEED
  5
FFFF
  9
$MEASUREMENT
 70
     1
  0
ENDSEC
  0
SECTION
  2
TABLES
  0
TABLE
  2
VPORT
  5
8
330
0
100
AcDbSymbolTable
 70
     4
  0
VPORT
  5
2E
330
8
100
AcDbSymbolTableRecord
100
AcDbViewportTableRecord
  2
*ACTIVE
 70
     0
 10
0.0
 20
0.0
 11
1.0
 21
1.0
 12
210.0
 22
148.5
 13
0.0
 23
0.0
 14
10.0
 24
10.0
 15
10.0
 25
10.0
 16
0.0
 26
0.0
 36
1.0
 17
0.0
 27
0.0
 37
0.0
 40
341.0
 41
1.24
 42
50.0
 43
0.0
 44
0.0
 50
0.0
 51
0.0
 71
     0
 72
   100
 73
     1
 74
     3
 75
     0
 76
     0
 77
     0
 78
     0
  0
ENDTAB
  0
TABLE
  2
LTYPE
  5
5
330
0
100
AcDbSymbolTable
 70
     1
  0
LTYPE
  5
14
330
5
100
AcDbSymbolTableRecord
100
AcDbLinetypeTableRecord
  2
BYBLOCK
 70
     0
  3

 72
    65
 73
     0
 40
0.0
  0
LTYPE
  5
15
330
5
100
AcDbSymbolTableRecord
100
AcDbLinetypeTableRecord
  2
BYLAYER
 70
     0
  3

 72
    65
 73
     0
 40
0.0
  0
LTYPE
  5
16
330
5
100
AcDbSymbolTableRecord
100
AcDbLinetypeTableRecord
  2
CONTINUOUS
 70
     0
  3
Solid line
 72
    65
 73
     0
 40
0.0
  0
ENDTAB
  0
TABLE
  2
LAYER
  5
2
100
AcDbSymbolTable
 70
2
  0
LAYER
  5
50
100
AcDbSymbolTableRecord
100
AcDbLayerTableRecord
  2
0
 70
0
  6
CONTINUOUS
  0
LAYER
  5
51
100
AcDbSymbolTableRecord
100
AcDbLayerTableRecord
  2
Ebene_1
 70
0
  6
CONTINUOUS
  0
ENDTAB
  0
TABLE
  2
STYLE
  5
3
330
0
100
AcDbSymbolTable
 70
     1
  0
STYLE
  5
11
330
3
100
AcDbSymbolTableRecord
100
AcDbTextStyleTableRecord
  2
STANDARD
 70
     0
 40
0.0
 41
1.0
 50
0.0
 71
     0
 42
2.5
  3
txt
  4

  0
ENDTAB
  0
TABLE
  2
VIEW
  5
6
330
0
100
AcDbSymbolTable
 70
     0
  0
ENDTAB
  0
TABLE
  2
UCS
  5
7
330
0
100
AcDbSymbolTable
 70
     0
  0
ENDTAB
  0
TABLE
  2
APPID
  5
9
330
0
100
AcDbSymbolTable
 70
     2
  0
APPID
  5
12
330
9
100
AcDbSymbolTableRecord
100
AcDbRegAppTableRecord
  2
ACAD
 70
     0
  0
ENDTAB
  0
TABLE
  2
DIMSTYLE
  5
A
330
0
100
AcDbSymbolTable
 70
     1
  0
DIMSTYLE
105
27
330
A
100
AcDbSymbolTableRecord
100
AcDbDimStyleTableRecord
  2
ISO-25
 70
     0
  3

  4

  5

  6

  7

 40
1.0
 41
2.5
 42
0.625
 43
3.75
 44
1.25
 45
0.0
 46
0.0
 47
0.0
 48
0.0
140
2.5
141
2.5
142
0.0
143
0.03937007874016
144
1.0
145
0.0
146
1.0
147
0.625
 71
     0
 72
     0
 73
     0
 74
     0
 75
     0
 76
     0
 77
     1
 78
     8
170
     0
171
     3
172
     1
173
     0
174
     0
175
     0
176
     0
177
     0
178
     0
270
     2
271
     2
272
     2
273
     2
274
     3
340
11
275
     0
280
     0
281
     0
282
     0
283
     0
284
     8
285
     0
286
     0
287
     3
288
     0
  0
ENDTAB
  0
TABLE
  2
BLOCK_RECORD
  5
1
330
0
100
AcDbSymbolTable
 70
     1
  0
BLOCK_RECORD
  5
1F
330
1
100
AcDbSymbolTableRecord
100
AcDbBlockTableRecord
  2
*MODEL_SPACE
  0
BLOCK_RECORD
  5
1B
330
1
100
AcDbSymbolTableRecord
100
AcDbBlockTableRecord
  2
*PAPER_SPACE
  0
ENDTAB
  0
ENDSEC
  0
SECTION
  2
BLOCKS
  0
BLOCK
  5
20
330
1F
100
AcDbEntity
  8
0
100
AcDbBlockBegin
  2
*MODEL_SPACE
 70
     0
 10
0.0
 20
0.0
 30
0.0
  3
*MODEL_SPACE
  1

  0
ENDBLK
  5
21
330
1F
100
AcDbEntity
  8
0
100
AcDbBlockEnd
  0
BLOCK
  5
1C
330
1B
100
AcDbEntity
 67
     1
  8
0
100
AcDbBlockBegin
  2
*PAPER_SPACE
  1

  0
ENDBLK
  5
1D
330
1B
100
AcDbEntity
 67
     1
  8
0
100
AcDbBlockEnd
  0
ENDSEC
  0
SECTION
  2
ENTITIES
  0
LWPOLYLINE
  5
100
100
AcDbEntity
  8
Ebene_1
 62
1
100
AcDbPolyline
 90
360
 70
1
 10
41.997946
 20
1.754760
 30
0.0
 10
43.397726
 20
1.579790
 30
0.0
 10
44.797446
 20
1.229830
 30
0.0
 10
44.797446
 20
-0.169980
 30
0.0
 10
43.397726
 20
-0.694880
 30
0.0
 10
41.997946
 20
-0.869850
 30
0.0
 10
41.822946
 20
-2.619540
 30
0.0
 10
43.222756
 20
-2.969480
 30
0.0
 10
44.622476
 20
-3.494410
 30
0.0
 10
44.447516
 20
-4.894140
 30
0.0
 10
43.047786
 20
-5.069110
 30
0.0
 10
41.647986
 20
-5.244080
 30
0.0
 10
41.298046
 20
-6.818850
 30
0.0
 10
42.697826
 20
-7.343700
 30
0.0
 10
44.097546
 20
-8.043610
 30
0.0
 10
43.747606
 20
-9.443410
 30
0.0
 10
42.172916
 20
-9.618380
 30
0.0
 10
40.773106
 20
-9.443410
 30
0.0
 10
40.423226
 20
-11.018100
 30
0.0
 10
41.647986
 20
-11.718010
 30
0.0
 10
42.872816
 20
-12.592880
 30
0.0
 10
42.522856
 20
-13.817630
 30
0.0
 10
40.948076
 20
-13.817630
 30
0.0
 10
39.548356
 20
-13.642660
 30
0.0
 10
38.848456
 20
-15.217440
 30
0.0
 10
40.073286
 20
-15.917310
 30
0.0
 10
41.298046
 20
-16.967100
 30
0.0
 10
40.773106
 20
-18.191940
 30
0.0
 10
39.198416
 20
-18.016940
 30
0.0
 10
37.798616
 20
-17.667000
 30
0.0
 10
37.098786
 20
-19.066730
 30
0.0
 10
38.148546
 20
-19.941600
 30
0.0
 10
39.198416
 20
-21.166410
 30
0.0
 10
38.498516
 20
-22.391170
 30
0.0
 10
37.098786
 20
-22.041230
 30
0.0
 10
35.698986
 20
-21.516370
 30
0.0
 10
34.824116
 20
-22.916100
 30
0.0
 10
35.873956
 20
-23.790970
 30
0.0
 10
36.748846
 20
-25.015730
 30
0.0
 10
36.048946
 20
-26.240540
 30
0.0
 10
34.474226
 20
-25.715630
 30
0.0
 10
33.249416
 20
-25.015730
 30
0.0
 10
32.199576
 20
-26.240540
 30
0.0
 10
33.074446
 20
-27.465370
 30
0.0
 10
33.949316
 20
-28.690120
 30
0.0
 10
32.899456
 20
-29.739970
 30
0.0
 10
31.674726
 20
-29.040060
 30
0.0
 10
30.449886
 20
-28.340160
 30
0.0
 10
29.225076
 20
-29.390000
 30
0.0
 10
30.099946
 20
-30.614840
 30
0.0
 10
30.624856
 20
-32.014560
 30
0.0
 10
29.575016
 20
-33.064400
 30
0.0
 10
28.350266
 20
-32.189530
 30
0.0
 10
27.300426
 20
-31.314660
 30
0.0
 10
25.900616
 20
-32.364500
 30
0.0
 10
26.600516
 20
-33.589340
 30
0.0
 10
27.125456
 20
-34.989060
 30
0.0
 10
25.900616
 20
-35.863930
 30
0.0
 10
24.850856
 20
-34.989060
 30
0.0
 10
23.800986
 20
-33.939220
 30
0.0
 10
22.401266
 20
-34.814090
 30
0.0
 10
22.926116
 20
-36.213870
 30
0.0
 10
23.276086
 20
-37.613590
 30
0.0
 10
22.051326
 20
-38.313500
 30
0.0
 10
21.001486
 20
-37.263660
 30
0.0
 10
19.951616
 20
-36.213870
 30
0.0
 10
18.551896
 20
-36.913720
 30
0.0
 10
18.901856
 20
-38.313500
 30
0.0
 10
19.076826
 20
-39.888190
 30
0.0
 10
17.851996
 20
-40.413120
 30
0.0
 10
16.802226
 20
-39.188370
 30
0.0
 10
16.102326
 20
-37.963560
 30
0.0
 10
14.527556
 20
-38.663460
 30
0.0
 10
14.702526
 20
-40.063190
 30
0.0
 10
14.877516
 20
-41.462960
 30
0.0
 10
13.477796
 20
-41.987900
 30
0.0
 10
12.602896
 20
-40.763090
 30
0.0
 10
11.903014
 20
-39.363360
 30
0.0
 10
10.328298
 20
-39.888190
 30
0.0
 10
10.503294
 20
-41.288000
 30
0.0
 10
10.328298
 20
-42.862690
 30
0.0
 10
8.928520
 20
-43.037690
 30
0.0
 10
8.228618
 20
-41.812930
 30
0.0
 10
7.703764
 20
-40.413120
 30
0.0
 10
6.128990
 20
-40.588090
 30
0.0
 10
6.128990
 20
-42.162870
 30
0.0
 10
5.779026
 20
-43.562590
 30
0.0
 10
4.379300
 20
-43.737590
 30
0.0
 10
3.854394
 20
-42.337860
 30
0.0
 10
3.504429
 20
-40.938060
 30
0.0
 10
1.754766
 20
-41.113030
 30
0.0
 10
1.579797
 20
-42.512830
 30
0.0
 10
1.054864
 20
-43.912560
 30
0.0
 10
-0.169945
 20
-43.912560
 30
0.0
 10
-0.694879
 20
-42.512830
 30
0.0
 10
-0.869848
 20
-41.113030
 30
0.0
 10
-2.619537
 20
-40.938060
 30
0.0
 10
-2.969475
 20
-42.337860
 30
0.0
 10
-3.494409
 20
-43.737590
 30
0.0
 10
-4.894134
 20
-43.562590
 30
0.0
 10
-5.244072
 20
-42.162870
 30
0.0
 10
-5.244072
 20
-40.588090
 30
0.0
 10
-6.818845
 20
-40.413120
 30
0.0
 10
-7.343699
 20
-41.812930
 30
0.0
 10
-8.218570
 20
-43.037690
 30
0.0
 10
-9.443406
 20
-42.862690
 30
0.0
 10
-9.618375
 20
-41.288000
 30
0.0
 10
-9.443406
 20
-39.888190
 30
0.0
 10
-11.193069
 20
-39.363360
 30
0.0
 10
-11.718002
 20
-40.763090
 30
0.0
 10
-12.592874
 20
-41.987900
 30
0.0
 10
-13.992599
 20
-41.462960
 30
0.0
 10
-13.992599
 20
-40.063190
 30
0.0
 10
-13.642635
 20
-38.663460
 30
0.0
 10
-15.217408
 20
-37.963560
 30
0.0
 10
-16.092226
 20
-39.188370
 30
0.0
 10
-16.967098
 20
-40.413120
 30
0.0
 10
-18.191907
 20
-39.888190
 30
0.0
 10
-18.016938
 20
-38.313500
 30
0.0
 10
-17.667000
 20
-36.913720
 30
0.0
 10
-19.241694
 20
-36.213870
 30
0.0
 10
-20.116565
 20
-37.263660
 30
0.0
 10
-21.166406
 20
-38.313500
 30
0.0
 10
-22.391162
 20
-37.613590
 30
0.0
 10
-22.041224
 20
-36.213870
 30
0.0
 10
-21.516370
 20
-34.814090
 30
0.0
 10
-22.916095
 20
-33.939220
 30
0.0
 10
-23.965935
 20
-34.989060
 30
0.0
 10
-25.190692
 20
-35.863930
 30
0.0
 10
-26.240532
 20
-34.989060
 30
0.0
 10
-25.715599
 20
-33.589340
 30
0.0
 10
-25.015723
 20
-32.364500
 30
0.0
 10
-26.415501
 20
-31.314660
 30
0.0
 10
-27.465367
 20
-32.189530
 30
0.0
 10
-28.865093
 20
-33.064400
 30
0.0
 10
-29.739964
 20
-32.014560
 30
0.0
 10
-29.215031
 20
-30.614840
 30
0.0
 10
-28.340159
 20
-29.390000
 30
0.0
 10
-29.564995
 20
-28.340160
 30
0.0
 10
-30.789725
 20
-29.040060
 30
0.0
 10
-32.189529
 20
-29.739970
 30
0.0
 10
-33.064401
 20
-28.690120
 30
0.0
 10
-32.189529
 20
-27.465370
 30
0.0
 10
-31.314658
 20
-26.240540
 30
0.0
 10
-32.364498
 20
-25.015730
 30
0.0
 10
-33.589334
 20
-25.715630
 30
0.0
 10
-35.164028
 20
-26.240540
 30
0.0
 10
-35.863930
 20
-25.015730
 30
0.0
 10
-34.989059
 20
-23.790970
 30
0.0
 10
-33.939192
 20
-22.916100
 30
0.0
 10
-34.814090
 20
-21.516370
 30
0.0
 10
-36.213868
 20
-22.041230
 30
0.0
 10
-37.613594
 20
-22.391170
 30
0.0
 10
-38.313496
 20
-21.166410
 30
0.0
 10
-37.263656
 20
-19.941600
 30
0.0
 10
-36.213868
 20
-19.066730
 30
0.0
 10
-36.913691
 20
-17.667000
 30
0.0
 10
-38.313496
 20
-18.016940
 30
0.0
 10
-39.888190
 20
-18.191940
 30
0.0
 10
-40.413123
 20
-16.967100
 30
0.0
 10
-39.188367
 20
-15.917310
 30
0.0
 10
-38.138527
 20
-15.217440
 30
0.0
 10
-38.663460
 20
-13.642660
 30
0.0
 10
-40.063185
 20
-13.817630
 30
0.0
 10
-41.637959
 20
-13.817630
 30
0.0
 10
-41.987897
 20
-12.592880
 30
0.0
 10
-40.763061
 20
-11.718010
 30
0.0
 10
-39.538331
 20
-11.018100
 30
0.0
 10
-39.888190
 20
-9.443410
 30
0.0
 10
-41.287995
 20
-9.618380
 30
0.0
 10
-42.862689
 20
-9.443410
 30
0.0
 10
-43.212653
 20
-8.043610
 30
0.0
 10
-41.812928
 20
-7.343700
 30
0.0
 10
-40.413123
 20
-6.818850
 30
0.0
 10
-40.763061
 20
-5.244080
 30
0.0
 10
-42.162866
 20
-5.069110
 30
0.0
 10
-43.737560
 20
-4.894140
 30
0.0
 10
-43.737560
 20
-3.494410
 30
0.0
 10
-42.337835
 20
-2.969480
 30
0.0
 10
-40.938057
 20
-2.619540
 30
0.0
 10
-41.113026
 20
-0.869850
 30
0.0
 10
-42.512830
 20
-0.694880
 30
0.0
 10
-43.912555
 20
-0.169980
 30
0.0
 10
-43.912555
 20
1.229830
 30
0.0
 10
-42.512830
 20
1.579790
 30
0.0
 10
-41.113026
 20
1.754760
 30
0.0
 10
-40.938057
 20
3.504430
 30
0.0
 10
-42.337835
 20
3.854390
 30
0.0
 10
-43.737560
 20
4.379300
 30
0.0
 10
-43.737560
 20
5.779020
 30
0.0
 10
-42.162866
 20
6.128990
 30
0.0
 10
-40.763061
 20
6.128990
 30
0.0
 10
-40.413123
 20
7.878650
 30
0.0
 10
-41.812928
 20
8.228610
 30
0.0
 10
-43.212653
 20
9.103490
 30
0.0
 10
-42.862689
 20
10.328290
 30
0.0
 10
-41.287995
 20
10.503260
 30
0.0
 10
-39.888190
 20
10.503260
 30
0.0
 10
-39.538331
 20
12.077980
 30
0.0
 10
-40.763061
 20
12.602890
 30
0.0
 10
-41.987897
 20
13.477770
 30
0.0
 10
-41.637959
 20
14.877490
 30
0.0
 10
-40.063185
 20
14.877490
 30
0.0
 10
-38.663460
 20
14.527550
 30
0.0
 10
-38.138527
 20
16.102330
 30
0.0
 10
-39.188367
 20
16.977120
 30
0.0
 10
-40.413123
 20
17.851990
 30
0.0
 10
-39.888190
 20
19.076830
 30
0.0
 10
-38.313496
 20
18.901860
 30
0.0
 10
-36.913691
 20
18.551890
 30
0.0
 10
-36.213868
 20
20.126590
 30
0.0
 10
-37.263656
 20
21.001490
 30
0.0
 10
-38.313496
 20
22.051330
 30
0.0
 10
-37.613594
 20
23.276080
 30
0.0
 10
-36.213868
 20
22.926120
 30
0.0
 10
-34.814090
 20
22.401260
 30
0.0
 10
-33.939192
 20
23.800990
 30
0.0
 10
-34.989059
 20
24.850860
 30
0.0
 10
-35.863930
 20
26.075580
 30
0.0
 10
-35.164028
 20
27.125450
 30
0.0
 10
-33.589334
 20
26.600520
 30
0.0
 10
-32.364498
 20
25.900620
 30
0.0
 10
-31.314658
 20
27.300420
 30
0.0
 10
-32.189529
 20
28.350260
 30
0.0
 10
-33.064401
 20
29.749990
 30
0.0
 10
-32.189529
 20
30.624860
 30
0.0
 10
-30.789725
 20
30.099950
 30
0.0
 10
-29.564995
 20
29.225050
 30
0.0
 10
-28.340159
 20
30.449890
 30
0.0
 10
-29.215031
 20
31.674640
 30
0.0
 10
-29.739964
 20
33.074450
 30
0.0
 10
-28.865093
 20
33.949320
 30
0.0
 10
-27.465367
 20
33.074450
 30
0.0
 10
-26.415501
 20
32.199550
 30
0.0
 10
-25.015723
 20
33.249420
 30
0.0
 10
-25.715599
 20
34.474230
 30
0.0
 10
-26.240532
 20
36.048950
 30
0.0
 10
-25.190692
 20
36.748820
 30
0.0
 10
-23.965935
 20
35.873950
 30
0.0
 10
-22.916095
 20
34.824110
 30
0.0
 10
-21.516370
 20
35.698980
 30
0.0
 10
-22.041224
 20
37.098790
 30
0.0
 10
-22.391162
 20
38.498510
 30
0.0
 10
-21.166406
 20
39.198420
 30
0.0
 10
-20.116565
 20
38.148550
 30
0.0
 10
-19.241694
 20
37.098790
 30
0.0
 10
-17.667000
 20
37.798610
 30
0.0
 10
-18.016938
 20
39.198420
 30
0.0
 10
-18.191907
 20
40.773110
 30
0.0
 10
-16.967098
 20
41.298040
 30
0.0
 10
-16.092226
 20
40.248260
 30
0.0
 10
-15.217408
 20
39.023420
 30
0.0
 10
-13.642635
 20
39.548350
 30
0.0
 10
-13.992599
 20
40.948080
 30
0.0
 10
-13.992599
 20
42.522850
 30
0.0
 10
-12.592874
 20
42.872820
 30
0.0
 10
-11.718002
 20
41.647980
 30
0.0
 10
-11.193069
 20
40.423220
 30
0.0
 10
-9.443406
 20
40.773110
 30
0.0
 10
-9.618375
 20
42.172910
 30
0.0
 10
-9.443406
 20
43.747610
 30
0.0
 10
-8.218570
 20
44.097550
 30
0.0
 10
-7.343699
 20
42.697820
 30
0.0
 10
-6.818845
 20
41.298040
 30
0.0
 10
-5.244072
 20
41.647980
 30
0.0
 10
-5.244072
 20
43.047790
 30
0.0
 10
-4.894134
 20
44.622480
 30
0.0
 10
-3.494409
 20
44.622480
 30
0.0
 10
-2.969475
 20
43.222750
 30
0.0
 10
-2.619537
 20
41.822950
 30
0.0
 10
-0.869848
 20
41.997920
 30
0.0
 10
-0.694879
 20
43.397720
 30
0.0
 10
-0.169945
 20
44.797450
 30
0.0
 10
1.054864
 20
44.797450
 30
0.0
 10
1.579797
 20
43.397720
 30
0.0
 10
1.754766
 20
41.997920
 30
0.0
 10
3.504429
 20
41.822950
 30
0.0
 10
3.854394
 20
43.222750
 30
0.0
 10
4.379300
 20
44.622480
 30
0.0
 10
5.779026
 20
44.622480
 30
0.0
 10
6.128990
 20
43.047790
 30
0.0
 10
6.128990
 20
41.647980
 30
0.0
 10
7.703764
 20
41.298040
 30
0.0
 10
8.228618
 20
42.697820
 30
0.0
 10
8.928520
 20
44.097550
 30
0.0
 10
10.328298
 20
43.747610
 30
0.0
 10
10.503294
 20
42.172910
 30
0.0
 10
10.328298
 20
40.773110
 30
0.0
 10
11.903014
 20
40.423220
 30
0.0
 10
12.602896
 20
41.647980
 30
0.0
 10
13.477796
 20
42.872820
 30
0.0
 10
14.877516
 20
42.522850
 30
0.0
 10
14.702526
 20
40.948080
 30
0.0
 10
14.527556
 20
39.548350
 30
0.0
 10
16.102326
 20
39.023420
 30
0.0
 10
16.802226
 20
40.248260
 30
0.0
 10
17.851996
 20
41.298040
 30
0.0
 10
19.076826
 20
40.773110
 30
0.0
 10
18.901856
 20
39.198420
 30
0.0
 10
18.551896
 20
37.798610
 30
0.0
 10
19.951616
 20
37.098790
 30
0.0
 10
21.001486
 20
38.148550
 30
0.0
 10
22.051326
 20
39.198420
 30
0.0
 10
23.276086
 20
38.498510
 30
0.0
 10
22.926116
 20
37.098790
 30
0.0
 10
22.401266
 20
35.698980
 30
0.0
 10
23.800986
 20
34.824110
 30
0.0
 10
24.850856
 20
35.873950
 30
0.0
 10
25.900616
 20
36.748820
 30
0.0
 10
27.125456
 20
36.048950
 30
0.0
 10
26.600516
 20
34.474230
 30
0.0
 10
25.900616
 20
33.249420
 30
0.0
 10
27.300426
 20
32.199550
 30
0.0
 10
28.350266
 20
33.074450
 30
0.0
 10
29.575016
 20
33.949320
 30
0.0
 10
30.624856
 20
33.074450
 30
0.0
 10
30.099946
 20
31.674640
 30
0.0
 10
29.225076
 20
30.449890
 30
0.0
 10
30.449886
 20
29.225050
 30
0.0
 10
31.674726
 20
30.099950
 30
0.0
 10
32.899456
 20
30.624860
 30
0.0
 10
33.949316
 20
29.749990
 30
0.0
 10
33.074446
 20
28.350260
 30
0.0
 10
32.199576
 20
27.300420
 30
0.0
 10
33.249416
 20
25.900620
 30
0.0
 10
34.474226
 20
26.600520
 30
0.0
 10
36.048946
 20
27.125450
 30
0.0
 10
36.748846
 20
26.075580
 30
0.0
 10
35.873956
 20
24.850860
 30
0.0
 10
34.824116
 20
23.800990
 30
0.0
 10
35.698986
 20
22.401260
 30
0.0
 10
37.098786
 20
22.926120
 30
0.0
 10
38.498516
 20
23.276080
 30
0.0
 10
39.198416
 20
22.051330
 30
0.0
 10
38.148546
 20
21.001490
 30
0.0
 10
37.098786
 20
20.126590
 30
0.0
 10
37.798616
 20
18.551890
 30
0.0
 10
39.198416
 20
18.901860
 30
0.0
 10
40.773106
 20
19.076830
 30
0.0
 10
41.298046
 20
17.851990
 30
0.0
 10
40.073286
 20
16.977120
 30
0.0
 10
38.848456
 20
16.102330
 30
0.0
 10
39.548356
 20
14.527550
 30
0.0
 10
40.948076
 20
14.877490
 30
0.0
 10
42.522856
 20
14.877490
 30
0.0
 10
42.872816
 20
13.477770
 30
0.0
 10
41.647986
 20
12.602890
 30
0.0
 10
40.423226
 20
12.077980
 30
0.0
 10
40.773106
 20
10.503260
 30
0.0
 10
42.172916
 20
10.503260
 30
0.0
 10
43.747606
 20
10.328290
 30
0.0
 10
44.097546
 20
9.103490
 30
0.0
 10
42.697826
 20
8.228610
 30
0.0
 10
41.298046
 20
7.878650
 30
0.0
 10
41.647986
 20
6.128990
 30
0.0
 10
43.047786
 20
6.128990
 30
0.0
 10
44.447516
 20
5.779020
 30
0.0
 10
44.622476
 20
4.379300
 30
0.0
 10
43.222756
 20
3.854390
 30
0.0
 10
41.822946
 20
3.504430
 30
0.0
  0
ENDSEC
  0
SECTION
  2
OBJECTS
  0
DICTIONARY
  5
C
330
0
100
AcDbDictionary
  3
ACAD_GROUP
350
D
  3
ACAD_MLINESTYLE
350
17
  0
DICTIONARY
  5
D
330
C
100
AcDbDictionary
  0
DICTIONARY
  5
1A
330
C
100
AcDbDictionary
  0
DICTIONARY
  5
17
330
C
100
AcDbDictionary
  3
STANDARD
350
18
  0
DICTIONARY
  5
19
330
C
100
AcDbDictionary
  0
ENDSEC
  0
EOF
