solid OpenSCAD_Model
  facet normal -1 0 0
    outer loop
      vertex -23.5 26 -9
      vertex -23.5 16 -6
      vertex -23.5 26 -6
    endloop
  endfacet
  facet normal -1 0 0
    outer loop
      vertex -23.5 -16 -9
      vertex -23.5 16 -6
      vertex -23.5 26 -9
    endloop
  endfacet
  facet normal -1 0 0
    outer loop
      vertex -23.5 -16 9
      vertex -23.5 16 -6
      vertex -23.5 -16 -9
    endloop
  endfacet
  facet normal -1 0 0
    outer loop
      vertex -23.5 16 -6
      vertex -23.5 -16 9
      vertex -23.5 16 9
    endloop
  endfacet
  facet normal 0 0 1
    outer loop
      vertex 23.5 26 -6
      vertex 13.65 21 -6
      vertex 23.5 16 -6
    endloop
  endfacet
  facet normal 0 0 1
    outer loop
      vertex 23.5 26 -6
      vertex 13.3349 21.9698 -6
      vertex 13.65 21 -6
    endloop
  endfacet
  facet normal 0 0 1
    outer loop
      vertex 23.5 26 -6
      vertex 12.5099 22.5692 -6
      vertex 13.3349 21.9698 -6
    endloop
  endfacet
  facet normal 0 0 1
    outer loop
      vertex 23.5 26 -6
      vertex 11.4901 22.5692 -6
      vertex 12.5099 22.5692 -6
    endloop
  endfacet
  facet normal 0 0 1
    outer loop
      vertex 10.6651 21.9698 -6
      vertex -10.35 21 -6
      vertex 10.35 21 -6
    endloop
  endfacet
  facet normal 0 0 1
    outer loop
      vertex -10.6651 21.9698 -6
      vertex 10.6651 21.9698 -6
      vertex 11.4901 22.5692 -6
    endloop
  endfacet
  facet normal 0 0 1
    outer loop
      vertex -11.4901 22.5692 -6
      vertex 11.4901 22.5692 -6
      vertex 23.5 26 -6
    endloop
  endfacet
  facet normal 0 0 1
    outer loop
      vertex 10.6651 21.9698 -6
      vertex -10.6651 21.9698 -6
      vertex -10.35 21 -6
    endloop
  endfacet
  facet normal 0 0 1
    outer loop
      vertex 11.4901 22.5692 -6
      vertex -11.4901 22.5692 -6
      vertex -10.6651 21.9698 -6
    endloop
  endfacet
  facet normal -0 0 1
    outer loop
      vertex -23.5 26 -6
      vertex -11.4901 22.5692 -6
      vertex 23.5 26 -6
    endloop
  endfacet
  facet normal 0 0 1
    outer loop
      vertex -13.3349 21.9698 -6
      vertex -23.5 26 -6
      vertex -13.65 21 -6
    endloop
  endfacet
  facet normal 0 0 1
    outer loop
      vertex -12.5099 22.5692 -6
      vertex -23.5 26 -6
      vertex -13.3349 21.9698 -6
    endloop
  endfacet
  facet normal 0 0 1
    outer loop
      vertex -11.4901 22.5692 -6
      vertex -23.5 26 -6
      vertex -12.5099 22.5692 -6
    endloop
  endfacet
  facet normal -0 0 1
    outer loop
      vertex 13.3349 20.0302 -6
      vertex 23.5 16 -6
      vertex 13.65 21 -6
    endloop
  endfacet
  facet normal -0 0 1
    outer loop
      vertex 12.5099 19.4308 -6
      vertex 23.5 16 -6
      vertex 13.3349 20.0302 -6
    endloop
  endfacet
  facet normal -0 0 1
    outer loop
      vertex 11.4901 19.4308 -6
      vertex 23.5 16 -6
      vertex 12.5099 19.4308 -6
    endloop
  endfacet
  facet normal -0 0 1
    outer loop
      vertex -10.35 21 -6
      vertex 10.6651 20.0302 -6
      vertex 10.35 21 -6
    endloop
  endfacet
  facet normal 0 0 1
    outer loop
      vertex -10.6651 20.0302 -6
      vertex 10.6651 20.0302 -6
      vertex -10.35 21 -6
    endloop
  endfacet
  facet normal 0 0 1
    outer loop
      vertex 10.6651 20.0302 -6
      vertex -10.6651 20.0302 -6
      vertex 11.4901 19.4308 -6
    endloop
  endfacet
  facet normal 0 0 1
    outer loop
      vertex -11.4901 19.4308 -6
      vertex 11.4901 19.4308 -6
      vertex -10.6651 20.0302 -6
    endloop
  endfacet
  facet normal 0 0 1
    outer loop
      vertex 11.4901 19.4308 -6
      vertex -11.4901 19.4308 -6
      vertex 23.5 16 -6
    endloop
  endfacet
  facet normal 0 0 1
    outer loop
      vertex -23.5 16 -6
      vertex -11.4901 19.4308 -6
      vertex -12.5099 19.4308 -6
    endloop
  endfacet
  facet normal 0 0 1
    outer loop
      vertex -23.5 16 -6
      vertex -13.65 21 -6
      vertex -23.5 26 -6
    endloop
  endfacet
  facet normal 0 0 1
    outer loop
      vertex -13.65 21 -6
      vertex -23.5 16 -6
      vertex -13.3349 20.0302 -6
    endloop
  endfacet
  facet normal 0 0 1
    outer loop
      vertex -11.4901 19.4308 -6
      vertex -23.5 16 -6
      vertex 23.5 16 -6
    endloop
  endfacet
  facet normal 0 0 1
    outer loop
      vertex -13.3349 20.0302 -6
      vertex -23.5 16 -6
      vertex -12.5099 19.4308 -6
    endloop
  endfacet
  facet normal 1 0 0
    outer loop
      vertex 23.5 16 9
      vertex 23.5 13 7.5
      vertex 23.5 16 -6
    endloop
  endfacet
  facet normal 1 0 0
    outer loop
      vertex 23.5 16 9
      vertex 23.5 0 7.5
      vertex 23.5 13 7.5
    endloop
  endfacet
  facet normal 1 0 0
    outer loop
      vertex 23.5 0 7.5
      vertex 23.5 -2.5 7.5
      vertex 23.5 0 -4.5
    endloop
  endfacet
  facet normal 1 -0 0
    outer loop
      vertex 23.5 -16 9
      vertex 23.5 0 7.5
      vertex 23.5 16 9
    endloop
  endfacet
  facet normal 1 0 0
    outer loop
      vertex 23.5 0 7.5
      vertex 23.5 -16 9
      vertex 23.5 -2.5 7.5
    endloop
  endfacet
  facet normal 1 0 0
    outer loop
      vertex 23.5 -11.5 7.5
      vertex 23.5 -16 9
      vertex 23.5 -11.5 -4.5
    endloop
  endfacet
  facet normal 1 0 0
    outer loop
      vertex 23.5 -2.5 7.5
      vertex 23.5 -16 9
      vertex 23.5 -11.5 7.5
    endloop
  endfacet
  facet normal 1 -0 0
    outer loop
      vertex 23.5 16 -6
      vertex 23.5 26 -9
      vertex 23.5 26 -6
    endloop
  endfacet
  facet normal 1 -0 0
    outer loop
      vertex 23.5 13 -4.5
      vertex 23.5 16 -6
      vertex 23.5 13 7.5
    endloop
  endfacet
  facet normal 1 -0 0
    outer loop
      vertex 23.5 0 -4.5
      vertex 23.5 16 -6
      vertex 23.5 13 -4.5
    endloop
  endfacet
  facet normal 1 0 0
    outer loop
      vertex 23.5 -16 -9
      vertex 23.5 16 -6
      vertex 23.5 0 -4.5
    endloop
  endfacet
  facet normal 1 0 0
    outer loop
      vertex 23.5 -2.5 -4.5
      vertex 23.5 0 -4.5
      vertex 23.5 -2.5 7.5
    endloop
  endfacet
  facet normal 1 0 0
    outer loop
      vertex 23.5 -16 -9
      vertex 23.5 0 -4.5
      vertex 23.5 -2.5 -4.5
    endloop
  endfacet
  facet normal 1 0 0
    outer loop
      vertex 23.5 -16 -9
      vertex 23.5 -2.5 -4.5
      vertex 23.5 -11.5 -4.5
    endloop
  endfacet
  facet normal 1 0 0
    outer loop
      vertex 23.5 16 -6
      vertex 23.5 -16 -9
      vertex 23.5 26 -9
    endloop
  endfacet
  facet normal 1 0 0
    outer loop
      vertex 23.5 -16 -9
      vertex 23.5 -11.5 -4.5
      vertex 23.5 -16 9
    endloop
  endfacet
  facet normal 0 0 -1
    outer loop
      vertex 13.3349 20.0302 -9
      vertex 23.5 26 -9
      vertex 23.5 -16 -9
    endloop
  endfacet
  facet normal 0 0 -1
    outer loop
      vertex 23.5 26 -9
      vertex 13.3349 20.0302 -9
      vertex 13.65 21 -9
    endloop
  endfacet
  facet normal 0 0 -1
    outer loop
      vertex 23.5 -16 -9
      vertex 12.5099 19.4308 -9
      vertex 13.3349 20.0302 -9
    endloop
  endfacet
  facet normal 0 0 -1
    outer loop
      vertex 23.5 -16 -9
      vertex 11.4901 19.4308 -9
      vertex 12.5099 19.4308 -9
    endloop
  endfacet
  facet normal 0 0 -1
    outer loop
      vertex -11.4901 19.4308 -9
      vertex 11.4901 19.4308 -9
      vertex 23.5 -16 -9
    endloop
  endfacet
  facet normal 0 0 -1
    outer loop
      vertex 10.6651 20.0302 -9
      vertex -10.35 21 -9
      vertex 10.35 21 -9
    endloop
  endfacet
  facet normal 0 0 -1
    outer loop
      vertex 11.4901 19.4308 -9
      vertex -11.4901 19.4308 -9
      vertex 10.6651 20.0302 -9
    endloop
  endfacet
  facet normal 0 0 -1
    outer loop
      vertex 10.6651 20.0302 -9
      vertex -10.6651 20.0302 -9
      vertex -10.35 21 -9
    endloop
  endfacet
  facet normal -0 0 -1
    outer loop
      vertex 10.6651 20.0302 -9
      vertex -11.4901 19.4308 -9
      vertex -10.6651 20.0302 -9
    endloop
  endfacet
  facet normal 0 0 -1
    outer loop
      vertex -23.5 -16 -9
      vertex -11.4901 19.4308 -9
      vertex 23.5 -16 -9
    endloop
  endfacet
  facet normal -0 0 -1
    outer loop
      vertex -11.4901 19.4308 -9
      vertex -23.5 -16 -9
      vertex -12.5099 19.4308 -9
    endloop
  endfacet
  facet normal 0 0 -1
    outer loop
      vertex -23.5 26 -9
      vertex -13.3349 20.0302 -9
      vertex -23.5 -16 -9
    endloop
  endfacet
  facet normal -0 0 -1
    outer loop
      vertex -12.5099 19.4308 -9
      vertex -23.5 -16 -9
      vertex -13.3349 20.0302 -9
    endloop
  endfacet
  facet normal 0 0 -1
    outer loop
      vertex 13.3349 21.9698 -9
      vertex 23.5 26 -9
      vertex 13.65 21 -9
    endloop
  endfacet
  facet normal 0 0 -1
    outer loop
      vertex 12.5099 22.5692 -9
      vertex 23.5 26 -9
      vertex 13.3349 21.9698 -9
    endloop
  endfacet
  facet normal 0 0 -1
    outer loop
      vertex 11.4901 22.5692 -9
      vertex 23.5 26 -9
      vertex 12.5099 22.5692 -9
    endloop
  endfacet
  facet normal 0 0 -1
    outer loop
      vertex -10.35 21 -9
      vertex 10.6651 21.9698 -9
      vertex 10.35 21 -9
    endloop
  endfacet
  facet normal 0 0 -1
    outer loop
      vertex -10.6651 21.9698 -9
      vertex 10.6651 21.9698 -9
      vertex -10.35 21 -9
    endloop
  endfacet
  facet normal 0 0 -1
    outer loop
      vertex 10.6651 21.9698 -9
      vertex -10.6651 21.9698 -9
      vertex 11.4901 22.5692 -9
    endloop
  endfacet
  facet normal 0 0 -1
    outer loop
      vertex -11.4901 22.5692 -9
      vertex 11.4901 22.5692 -9
      vertex -10.6651 21.9698 -9
    endloop
  endfacet
  facet normal 0 0 -1
    outer loop
      vertex 11.4901 22.5692 -9
      vertex -11.4901 22.5692 -9
      vertex 23.5 26 -9
    endloop
  endfacet
  facet normal 0 0 -1
    outer loop
      vertex -23.5 26 -9
      vertex -11.4901 22.5692 -9
      vertex -12.5099 22.5692 -9
    endloop
  endfacet
  facet normal 0 0 -1
    outer loop
      vertex -11.4901 22.5692 -9
      vertex -23.5 26 -9
      vertex 23.5 26 -9
    endloop
  endfacet
  facet normal 0 0 -1
    outer loop
      vertex -13.3349 21.9698 -9
      vertex -23.5 26 -9
      vertex -12.5099 22.5692 -9
    endloop
  endfacet
  facet normal 0 0 -1
    outer loop
      vertex -13.65 21 -9
      vertex -23.5 26 -9
      vertex -13.3349 21.9698 -9
    endloop
  endfacet
  facet normal 0 0 -1
    outer loop
      vertex -13.3349 20.0302 -9
      vertex -23.5 26 -9
      vertex -13.65 21 -9
    endloop
  endfacet
  facet normal 0 1 -0
    outer loop
      vertex 23.5 16 -6
      vertex -23.5 16 9
      vertex 23.5 16 9
    endloop
  endfacet
  facet normal 0 1 0
    outer loop
      vertex -23.5 16 9
      vertex 23.5 16 -6
      vertex -23.5 16 -6
    endloop
  endfacet
  facet normal 0 1 -0
    outer loop
      vertex 23.5 26 -9
      vertex -23.5 26 -6
      vertex 23.5 26 -6
    endloop
  endfacet
  facet normal 0 1 0
    outer loop
      vertex -23.5 26 -6
      vertex 23.5 26 -9
      vertex -23.5 26 -9
    endloop
  endfacet
  facet normal -0.951057 -0.309017 0
    outer loop
      vertex 13.65 21 -9
      vertex 13.3349 21.9698 -6
      vertex 13.3349 21.9698 -9
    endloop
  endfacet
  facet normal -0.951057 -0.309017 0
    outer loop
      vertex 13.3349 21.9698 -6
      vertex 13.65 21 -9
      vertex 13.65 21 -6
    endloop
  endfacet
  facet normal 0.951057 -0.309017 0
    outer loop
      vertex 10.35 21 -6
      vertex 10.6651 21.9698 -9
      vertex 10.6651 21.9698 -6
    endloop
  endfacet
  facet normal 0.951057 -0.309017 0
    outer loop
      vertex 10.6651 21.9698 -9
      vertex 10.35 21 -6
      vertex 10.35 21 -9
    endloop
  endfacet
  facet normal 0 -1 0
    outer loop
      vertex 11.4901 22.5692 -9
      vertex 12.5099 22.5692 -6
      vertex 11.4901 22.5692 -6
    endloop
  endfacet
  facet normal 0 -1 -0
    outer loop
      vertex 12.5099 22.5692 -6
      vertex 11.4901 22.5692 -9
      vertex 12.5099 22.5692 -9
    endloop
  endfacet
  facet normal -0.587785 -0.809017 0
    outer loop
      vertex 12.5099 22.5692 -9
      vertex 13.3349 21.9698 -6
      vertex 12.5099 22.5692 -6
    endloop
  endfacet
  facet normal -0.587785 -0.809017 -0
    outer loop
      vertex 13.3349 21.9698 -6
      vertex 12.5099 22.5692 -9
      vertex 13.3349 21.9698 -9
    endloop
  endfacet
  facet normal 0.587785 -0.809017 0
    outer loop
      vertex 10.6651 21.9698 -9
      vertex 11.4901 22.5692 -6
      vertex 10.6651 21.9698 -6
    endloop
  endfacet
  facet normal 0.587785 -0.809017 0
    outer loop
      vertex 11.4901 22.5692 -6
      vertex 10.6651 21.9698 -9
      vertex 11.4901 22.5692 -9
    endloop
  endfacet
  facet normal 0 1 -0
    outer loop
      vertex 12.5099 19.4308 -9
      vertex 11.4901 19.4308 -6
      vertex 12.5099 19.4308 -6
    endloop
  endfacet
  facet normal 0 1 0
    outer loop
      vertex 11.4901 19.4308 -6
      vertex 12.5099 19.4308 -9
      vertex 11.4901 19.4308 -9
    endloop
  endfacet
  facet normal -0.951057 0.309017 0
    outer loop
      vertex 13.3349 20.0302 -9
      vertex 13.65 21 -6
      vertex 13.65 21 -9
    endloop
  endfacet
  facet normal -0.951057 0.309017 0
    outer loop
      vertex 13.65 21 -6
      vertex 13.3349 20.0302 -9
      vertex 13.3349 20.0302 -6
    endloop
  endfacet
  facet normal -0.587785 0.809017 0
    outer loop
      vertex 13.3349 20.0302 -9
      vertex 12.5099 19.4308 -6
      vertex 13.3349 20.0302 -6
    endloop
  endfacet
  facet normal -0.587785 0.809017 0
    outer loop
      vertex 12.5099 19.4308 -6
      vertex 13.3349 20.0302 -9
      vertex 12.5099 19.4308 -9
    endloop
  endfacet
  facet normal 0.587785 0.809017 -0
    outer loop
      vertex 11.4901 19.4308 -9
      vertex 10.6651 20.0302 -6
      vertex 11.4901 19.4308 -6
    endloop
  endfacet
  facet normal 0.587785 0.809017 0
    outer loop
      vertex 10.6651 20.0302 -6
      vertex 11.4901 19.4308 -9
      vertex 10.6651 20.0302 -9
    endloop
  endfacet
  facet normal 0.951057 0.309017 0
    outer loop
      vertex 10.6651 20.0302 -6
      vertex 10.35 21 -9
      vertex 10.35 21 -6
    endloop
  endfacet
  facet normal 0.951057 0.309017 0
    outer loop
      vertex 10.35 21 -9
      vertex 10.6651 20.0302 -6
      vertex 10.6651 20.0302 -9
    endloop
  endfacet
  facet normal -0.951057 -0.309017 0
    outer loop
      vertex -10.35 21 -9
      vertex -10.6651 21.9698 -6
      vertex -10.6651 21.9698 -9
    endloop
  endfacet
  facet normal -0.951057 -0.309017 0
    outer loop
      vertex -10.6651 21.9698 -6
      vertex -10.35 21 -9
      vertex -10.35 21 -6
    endloop
  endfacet
  facet normal 0.951057 -0.309017 0
    outer loop
      vertex -13.65 21 -6
      vertex -13.3349 21.9698 -9
      vertex -13.3349 21.9698 -6
    endloop
  endfacet
  facet normal 0.951057 -0.309017 0
    outer loop
      vertex -13.3349 21.9698 -9
      vertex -13.65 21 -6
      vertex -13.65 21 -9
    endloop
  endfacet
  facet normal 0 -1 0
    outer loop
      vertex -12.5099 22.5692 -9
      vertex -11.4901 22.5692 -6
      vertex -12.5099 22.5692 -6
    endloop
  endfacet
  facet normal 0 -1 -0
    outer loop
      vertex -11.4901 22.5692 -6
      vertex -12.5099 22.5692 -9
      vertex -11.4901 22.5692 -9
    endloop
  endfacet
  facet normal -0.587785 -0.809017 0
    outer loop
      vertex -11.4901 22.5692 -9
      vertex -10.6651 21.9698 -6
      vertex -11.4901 22.5692 -6
    endloop
  endfacet
  facet normal -0.587785 -0.809017 -0
    outer loop
      vertex -10.6651 21.9698 -6
      vertex -11.4901 22.5692 -9
      vertex -10.6651 21.9698 -9
    endloop
  endfacet
  facet normal 0.587785 -0.809017 0
    outer loop
      vertex -13.3349 21.9698 -9
      vertex -12.5099 22.5692 -6
      vertex -13.3349 21.9698 -6
    endloop
  endfacet
  facet normal 0.587785 -0.809017 0
    outer loop
      vertex -12.5099 22.5692 -6
      vertex -13.3349 21.9698 -9
      vertex -12.5099 22.5692 -9
    endloop
  endfacet
  facet normal 0 1 -0
    outer loop
      vertex -11.4901 19.4308 -9
      vertex -12.5099 19.4308 -6
      vertex -11.4901 19.4308 -6
    endloop
  endfacet
  facet normal 0 1 0
    outer loop
      vertex -12.5099 19.4308 -6
      vertex -11.4901 19.4308 -9
      vertex -12.5099 19.4308 -9
    endloop
  endfacet
  facet normal 0.951057 0.309017 0
    outer loop
      vertex -13.3349 20.0302 -6
      vertex -13.65 21 -9
      vertex -13.65 21 -6
    endloop
  endfacet
  facet normal 0.951057 0.309017 0
    outer loop
      vertex -13.65 21 -9
      vertex -13.3349 20.0302 -6
      vertex -13.3349 20.0302 -9
    endloop
  endfacet
  facet normal -0.587785 0.809017 0
    outer loop
      vertex -10.6651 20.0302 -9
      vertex -11.4901 19.4308 -6
      vertex -10.6651 20.0302 -6
    endloop
  endfacet
  facet normal -0.587785 0.809017 0
    outer loop
      vertex -11.4901 19.4308 -6
      vertex -10.6651 20.0302 -9
      vertex -11.4901 19.4308 -9
    endloop
  endfacet
  facet normal 0.587785 0.809017 -0
    outer loop
      vertex -12.5099 19.4308 -9
      vertex -13.3349 20.0302 -6
      vertex -12.5099 19.4308 -6
    endloop
  endfacet
  facet normal 0.587785 0.809017 0
    outer loop
      vertex -13.3349 20.0302 -6
      vertex -12.5099 19.4308 -9
      vertex -13.3349 20.0302 -9
    endloop
  endfacet
  facet normal -0.951057 0.309017 0
    outer loop
      vertex -10.6651 20.0302 -9
      vertex -10.35 21 -6
      vertex -10.35 21 -9
    endloop
  endfacet
  facet normal -0.951057 0.309017 0
    outer loop
      vertex -10.35 21 -6
      vertex -10.6651 20.0302 -9
      vertex -10.6651 20.0302 -6
    endloop
  endfacet
  facet normal 0 0 1
    outer loop
      vertex 23.5 16 9
      vertex 20.5 13 9
      vertex 23.5 -16 9
    endloop
  endfacet
  facet normal 0 0 1
    outer loop
      vertex 23.5 16 9
      vertex -20.5 13 9
      vertex 20.5 13 9
    endloop
  endfacet
  facet normal 0 0 1
    outer loop
      vertex -20.5 13 9
      vertex -23.5 16 9
      vertex -20.5 -13 9
    endloop
  endfacet
  facet normal -0 0 1
    outer loop
      vertex -23.5 16 9
      vertex -20.5 13 9
      vertex 23.5 16 9
    endloop
  endfacet
  facet normal -0 0 1
    outer loop
      vertex 20.5 -13 9
      vertex 23.5 -16 9
      vertex 20.5 13 9
    endloop
  endfacet
  facet normal -0 0 1
    outer loop
      vertex -20.5 -13 9
      vertex 23.5 -16 9
      vertex 20.5 -13 9
    endloop
  endfacet
  facet normal 0 0 1
    outer loop
      vertex -20.5 -13 9
      vertex -23.5 -16 9
      vertex 23.5 -16 9
    endloop
  endfacet
  facet normal 0 0 1
    outer loop
      vertex -23.5 -16 9
      vertex -20.5 -13 9
      vertex -23.5 16 9
    endloop
  endfacet
  facet normal 0 -1 0
    outer loop
      vertex -23.5 -16 -9
      vertex 23.5 -16 9
      vertex -23.5 -16 9
    endloop
  endfacet
  facet normal 0 -1 -0
    outer loop
      vertex 23.5 -16 9
      vertex -23.5 -16 -9
      vertex 23.5 -16 -9
    endloop
  endfacet
  facet normal 1 -0 0
    outer loop
      vertex -20.5 -13 9
      vertex -20.5 13 -4.5
      vertex -20.5 13 9
    endloop
  endfacet
  facet normal 1 0 0
    outer loop
      vertex -20.5 13 -4.5
      vertex -20.5 -13 9
      vertex -20.5 -13 -4.5
    endloop
  endfacet
  facet normal -1 0 0
    outer loop
      vertex 20.5 -11.5 -4.5
      vertex 20.5 -13 -4.5
      vertex 20.5 -11.5 7.5
    endloop
  endfacet
  facet normal -1 0 0
    outer loop
      vertex 20.5 0 -4.5
      vertex 20.5 -2.5 -4.5
      vertex 20.5 0 7.5
    endloop
  endfacet
  facet normal -1 0 0
    outer loop
      vertex 20.5 0 7.5
      vertex 20.5 13 9
      vertex 20.5 13 7.5
    endloop
  endfacet
  facet normal -1 0 0
    outer loop
      vertex 20.5 -2.5 7.5
      vertex 20.5 0 7.5
      vertex 20.5 -2.5 -4.5
    endloop
  endfacet
  facet normal -1 0 0
    outer loop
      vertex 20.5 -13 9
      vertex 20.5 0 7.5
      vertex 20.5 -2.5 7.5
    endloop
  endfacet
  facet normal -1 0 0
    outer loop
      vertex 20.5 -13 9
      vertex 20.5 -2.5 7.5
      vertex 20.5 -11.5 7.5
    endloop
  endfacet
  facet normal -1 0 0
    outer loop
      vertex 20.5 0 7.5
      vertex 20.5 -13 9
      vertex 20.5 13 9
    endloop
  endfacet
  facet normal -1 0 0
    outer loop
      vertex 20.5 -13 9
      vertex 20.5 -11.5 7.5
      vertex 20.5 -13 -4.5
    endloop
  endfacet
  facet normal 0 -1 0
    outer loop
      vertex -20.5 13 9
      vertex 20.5 13 7.5
      vertex 20.5 13 9
    endloop
  endfacet
  facet normal 0 -1 0
    outer loop
      vertex -20.5 13 -4.5
      vertex 20.5 13 7.5
      vertex -20.5 13 9
    endloop
  endfacet
  facet normal 0 -1 0
    outer loop
      vertex 23.5 13 -4.5
      vertex 20.5 13 7.5
      vertex -20.5 13 -4.5
    endloop
  endfacet
  facet normal 0 -1 0
    outer loop
      vertex 20.5 13 7.5
      vertex 23.5 13 -4.5
      vertex 23.5 13 7.5
    endloop
  endfacet
  facet normal 0 0 1
    outer loop
      vertex 23.5 13 -4.5
      vertex 20.5 0 -4.5
      vertex 23.5 0 -4.5
    endloop
  endfacet
  facet normal 0 0 1
    outer loop
      vertex -20.5 -13 -4.5
      vertex 20.5 -2.5 -4.5
      vertex 20.5 0 -4.5
    endloop
  endfacet
  facet normal 0 0 1
    outer loop
      vertex 20.5 -2.5 -4.5
      vertex -20.5 -13 -4.5
      vertex 20.5 -11.5 -4.5
    endloop
  endfacet
  facet normal -0 0 1
    outer loop
      vertex -20.5 13 -4.5
      vertex 20.5 0 -4.5
      vertex 23.5 13 -4.5
    endloop
  endfacet
  facet normal 0 0 1
    outer loop
      vertex -20.5 -13 -4.5
      vertex 20.5 0 -4.5
      vertex -20.5 13 -4.5
    endloop
  endfacet
  facet normal 0 0 1
    outer loop
      vertex 20.5 -11.5 -4.5
      vertex -20.5 -13 -4.5
      vertex 20.5 -13 -4.5
    endloop
  endfacet
  facet normal -0 0 1
    outer loop
      vertex 20.5 -2.5 -4.5
      vertex 23.5 -11.5 -4.5
      vertex 23.5 -2.5 -4.5
    endloop
  endfacet
  facet normal 0 0 1
    outer loop
      vertex 23.5 -11.5 -4.5
      vertex 20.5 -2.5 -4.5
      vertex 20.5 -11.5 -4.5
    endloop
  endfacet
  facet normal 0 1 -0
    outer loop
      vertex 20.5 -13 -4.5
      vertex -20.5 -13 9
      vertex 20.5 -13 9
    endloop
  endfacet
  facet normal 0 1 0
    outer loop
      vertex -20.5 -13 9
      vertex 20.5 -13 -4.5
      vertex -20.5 -13 -4.5
    endloop
  endfacet
  facet normal 0 0 -1
    outer loop
      vertex 20.5 0 7.5
      vertex 23.5 13 7.5
      vertex 23.5 0 7.5
    endloop
  endfacet
  facet normal -0 0 -1
    outer loop
      vertex 23.5 13 7.5
      vertex 20.5 0 7.5
      vertex 20.5 13 7.5
    endloop
  endfacet
  facet normal 0 1 -0
    outer loop
      vertex 23.5 0 -4.5
      vertex 20.5 0 7.5
      vertex 23.5 0 7.5
    endloop
  endfacet
  facet normal 0 1 0
    outer loop
      vertex 20.5 0 7.5
      vertex 23.5 0 -4.5
      vertex 20.5 0 -4.5
    endloop
  endfacet
  facet normal 0 0 -1
    outer loop
      vertex 20.5 -11.5 7.5
      vertex 23.5 -2.5 7.5
      vertex 23.5 -11.5 7.5
    endloop
  endfacet
  facet normal -0 0 -1
    outer loop
      vertex 23.5 -2.5 7.5
      vertex 20.5 -11.5 7.5
      vertex 20.5 -2.5 7.5
    endloop
  endfacet
  facet normal 0 1 -0
    outer loop
      vertex 23.5 -11.5 -4.5
      vertex 20.5 -11.5 7.5
      vertex 23.5 -11.5 7.5
    endloop
  endfacet
  facet normal 0 1 0
    outer loop
      vertex 20.5 -11.5 7.5
      vertex 23.5 -11.5 -4.5
      vertex 20.5 -11.5 -4.5
    endloop
  endfacet
  facet normal 0 -1 0
    outer loop
      vertex 20.5 -2.5 -4.5
      vertex 23.5 -2.5 7.5
      vertex 20.5 -2.5 7.5
    endloop
  endfacet
  facet normal 0 -1 -0
    outer loop
      vertex 23.5 -2.5 7.5
      vertex 20.5 -2.5 -4.5
      vertex 23.5 -2.5 -4.5
    endloop
  endfacet
endsolid OpenSCAD_Model
